<svg width="41" height="40" viewBox="0 0 41 40" fill="none" xmlns="http://www.w3.org/2000/svg">
<path d="M10.5 36.6667C9.58332 36.6667 8.79888 36.3406 8.14666 35.6883C7.49332 35.035 7.16666 34.25 7.16666 33.3333V13.3333C7.16666 12.4167 7.49332 11.6322 8.14666 10.98C8.79888 10.3267 9.58332 10 10.5 10H13.8333C13.8333 8.16667 14.4861 6.59722 15.7917 5.29167C17.0972 3.98611 18.6667 3.33333 20.5 3.33333C22.3333 3.33333 23.9028 3.98611 25.2083 5.29167C26.5139 6.59722 27.1667 8.16667 27.1667 10H30.5C31.4167 10 32.2017 10.3267 32.855 10.98C33.5072 11.6322 33.8333 12.4167 33.8333 13.3333V33.3333C33.8333 34.25 33.5072 35.035 32.855 35.6883C32.2017 36.3406 31.4167 36.6667 30.5 36.6667H10.5ZM10.5 33.3333H30.5V13.3333H27.1667V16.6667C27.1667 17.1389 27.0072 17.5344 26.6883 17.8533C26.3683 18.1733 25.9722 18.3333 25.5 18.3333C25.0278 18.3333 24.6322 18.1733 24.3133 17.8533C23.9933 17.5344 23.8333 17.1389 23.8333 16.6667V13.3333H17.1667V16.6667C17.1667 17.1389 17.0072 17.5344 16.6883 17.8533C16.3683 18.1733 15.9722 18.3333 15.5 18.3333C15.0278 18.3333 14.6322 18.1733 14.3133 17.8533C13.9933 17.5344 13.8333 17.1389 13.8333 16.6667V13.3333H10.5V33.3333ZM17.1667 10H23.8333C23.8333 9.08333 23.5072 8.29889 22.855 7.64666C22.2017 6.99333 21.4167 6.66667 20.5 6.66667C19.5833 6.66667 18.7989 6.99333 18.1467 7.64666C17.4933 8.29889 17.1667 9.08333 17.1667 10ZM10.5 33.3333V13.3333V33.3333Z" fill="white"/>
</svg>
