<svg width="31" height="30" viewBox="0 0 31 30" fill="none" xmlns="http://www.w3.org/2000/svg">
<path d="M9.4375 26.375C9.125 26.0625 8.96875 25.6925 8.96875 25.265C8.96875 24.8383 9.125 24.4688 9.4375 24.1563L18.5938 15L9.40625 5.8125C9.11458 5.52083 8.96875 5.15625 8.96875 4.71875C8.96875 4.28125 9.125 3.90625 9.4375 3.59375C9.75 3.28125 10.12 3.125 10.5475 3.125C10.9742 3.125 11.3438 3.28125 11.6563 3.59375L22.1563 14.125C22.2813 14.25 22.37 14.3854 22.4225 14.5312C22.4742 14.6771 22.5 14.8333 22.5 15C22.5 15.1667 22.4742 15.3229 22.4225 15.4688C22.37 15.6146 22.2813 15.75 22.1563 15.875L11.625 26.4062C11.3333 26.6979 10.9742 26.8438 10.5475 26.8438C10.12 26.8438 9.75 26.6875 9.4375 26.375Z" fill="white"/>
</svg>
