<svg width="41" height="40" viewBox="0 0 41 40" fill="none" xmlns="http://www.w3.org/2000/svg">
<path d="M13.5 3.33334H27.5C32.8333 3.33334 37.1667 7.66668 37.1667 13V27C37.1667 29.5638 36.1482 32.0225 34.3354 33.8354C32.5225 35.6482 30.0638 36.6667 27.5 36.6667H13.5C8.16668 36.6667 3.83334 32.3333 3.83334 27V13C3.83334 10.4363 4.85179 7.9775 6.66464 6.16464C8.4775 4.35179 10.9363 3.33334 13.5 3.33334M13.1667 6.66668C11.5754 6.66668 10.0493 7.29882 8.92404 8.42404C7.79882 9.54925 7.16668 11.0754 7.16668 12.6667V27.3333C7.16668 30.65 9.85001 33.3333 13.1667 33.3333H27.8333C29.4246 33.3333 30.9508 32.7012 32.076 31.576C33.2012 30.4508 33.8333 28.9246 33.8333 27.3333V12.6667C33.8333 9.35001 31.15 6.66668 27.8333 6.66668H13.1667ZM29.25 9.16668C29.8025 9.16668 30.3325 9.38617 30.7232 9.77687C31.1139 10.1676 31.3333 10.6975 31.3333 11.25C31.3333 11.8025 31.1139 12.3324 30.7232 12.7231C30.3325 13.1139 29.8025 13.3333 29.25 13.3333C28.6975 13.3333 28.1676 13.1139 27.7769 12.7231C27.3862 12.3324 27.1667 11.8025 27.1667 11.25C27.1667 10.6975 27.3862 10.1676 27.7769 9.77687C28.1676 9.38617 28.6975 9.16668 29.25 9.16668ZM20.5 11.6667C22.7101 11.6667 24.8298 12.5447 26.3926 14.1075C27.9554 15.6703 28.8333 17.7899 28.8333 20C28.8333 22.2101 27.9554 24.3298 26.3926 25.8926C24.8298 27.4554 22.7101 28.3333 20.5 28.3333C18.2899 28.3333 16.1703 27.4554 14.6075 25.8926C13.0447 24.3298 12.1667 22.2101 12.1667 20C12.1667 17.7899 13.0447 15.6703 14.6075 14.1075C16.1703 12.5447 18.2899 11.6667 20.5 11.6667M20.5 15C19.1739 15 17.9022 15.5268 16.9645 16.4645C16.0268 17.4022 15.5 18.6739 15.5 20C15.5 21.3261 16.0268 22.5979 16.9645 23.5355C17.9022 24.4732 19.1739 25 20.5 25C21.8261 25 23.0979 24.4732 24.0355 23.5355C24.9732 22.5979 25.5 21.3261 25.5 20C25.5 18.6739 24.9732 17.4022 24.0355 16.4645C23.0979 15.5268 21.8261 15 20.5 15Z" fill="white"/>
</svg>
