<svg width="40" height="40" viewBox="0 0 40 40" fill="none" xmlns="http://www.w3.org/2000/svg">
<path d="M37.4333 10C36.15 10.5833 34.7667 10.9667 33.3333 11.15C34.8 10.2667 35.9333 8.86667 36.4667 7.18334C35.0833 8.01667 33.55 8.60001 31.9333 8.93334C30.6167 7.50001 28.7667 6.66667 26.6667 6.66667C22.75 6.66667 19.55 9.86667 19.55 13.8167C19.55 14.3833 19.6167 14.9333 19.7333 15.45C13.8 15.15 8.51668 12.3 5.00001 7.98334C4.38335 9.03334 4.03335 10.2667 4.03335 11.5667C4.03335 14.05 5.28335 16.25 7.21668 17.5C6.03335 17.5 4.93335 17.1667 3.96668 16.6667V16.7167C3.96668 20.1833 6.43335 23.0833 9.70001 23.7333C8.65123 24.0204 7.55017 24.0603 6.48335 23.85C6.93602 25.2708 7.82258 26.514 9.01837 27.4049C10.2142 28.2958 11.6591 28.7895 13.15 28.8167C10.6227 30.8174 7.49001 31.8989 4.26668 31.8833C3.70001 31.8833 3.13335 31.85 2.56668 31.7833C5.73335 33.8167 9.50001 35 13.5333 35C26.6667 35 33.8833 24.1 33.8833 14.65C33.8833 14.3333 33.8833 14.0333 33.8667 13.7167C35.2667 12.7167 36.4667 11.45 37.4333 10V10Z" fill="white"/>
</svg>
