<svg width="41" height="40" viewBox="0 0 41 40" fill="none" xmlns="http://www.w3.org/2000/svg">
<path d="M17.1667 25L25.8167 20L17.1667 15V25ZM36.4333 11.95C36.65 12.7333 36.8 13.7833 36.9 15.1167C37.0167 16.45 37.0667 17.6 37.0667 18.6L37.1667 20C37.1667 23.65 36.9 26.3333 36.4333 28.05C36.0167 29.55 35.05 30.5167 33.55 30.9333C32.7667 31.15 31.3333 31.3 29.1333 31.4C26.9667 31.5167 24.9833 31.5667 23.15 31.5667L20.5 31.6667C13.5167 31.6667 9.16668 31.4 7.45001 30.9333C5.95001 30.5167 4.98334 29.55 4.56668 28.05C4.35001 27.2667 4.20001 26.2167 4.10001 24.8833C3.98334 23.55 3.93334 22.4 3.93334 21.4L3.83334 20C3.83334 16.35 4.10001 13.6667 4.56668 11.95C4.98334 10.45 5.95001 9.48333 7.45001 9.06666C8.23334 8.85 9.66668 8.69999 11.8667 8.59999C14.0333 8.48333 16.0167 8.43333 17.85 8.43333L20.5 8.33333C27.4833 8.33333 31.8333 8.6 33.55 9.06666C35.05 9.48333 36.0167 10.45 36.4333 11.95V11.95Z" fill="white"/>
</svg>
